<?xml version="1.0" encoding="UTF-8" standalone="no"?>
<!DOCTYPE svg PUBLIC "-//W3C//DTD SVG 1.1//EN"
 "http://www.w3.org/Graphics/SVG/1.1/DTD/svg11.dtd">
<!-- Generated by graphviz version 2.43.0 (0)
 -->
<!-- Title: %3 Pages: 1 -->
<svg width="212pt" height="550pt"
 viewBox="0.00 0.00 212.00 550.00" xmlns="http://www.w3.org/2000/svg" xmlns:xlink="http://www.w3.org/1999/xlink">
<g id="graph0" class="graph" transform="scale(1 1) rotate(0) translate(4 546)">
<title>%3</title>
<polygon fill="white" stroke="transparent" points="-4,4 -4,-546 208,-546 208,4 -4,4"/>
<!-- Start -->
<g id="node1" class="node">
<title>Start</title>
<path fill="#c1a4e9" stroke="black" d="M143.5,-542C143.5,-542 60.5,-542 60.5,-542 54.5,-542 48.5,-536 48.5,-530 48.5,-530 48.5,-518 48.5,-518 48.5,-512 54.5,-506 60.5,-506 60.5,-506 143.5,-506 143.5,-506 149.5,-506 155.5,-512 155.5,-518 155.5,-518 155.5,-530 155.5,-530 155.5,-536 149.5,-542 143.5,-542"/>
<text text-anchor="middle" x="102" y="-520.3" font-family="Helvetica,sans-Serif" font-size="14.00">System Start</text>
</g>
<!-- HW -->
<g id="node2" class="node">
<title>HW</title>
<path fill="#ffcf9f" stroke="black" d="M175.5,-470C175.5,-470 28.5,-470 28.5,-470 22.5,-470 16.5,-464 16.5,-458 16.5,-458 16.5,-446 16.5,-446 16.5,-440 22.5,-434 28.5,-434 28.5,-434 175.5,-434 175.5,-434 181.5,-434 187.5,-440 187.5,-446 187.5,-446 187.5,-458 187.5,-458 187.5,-464 181.5,-470 175.5,-470"/>
<text text-anchor="middle" x="102" y="-448.3" font-family="Helvetica,sans-Serif" font-size="14.00">Hardware Initialization</text>
</g>
<!-- Start&#45;&gt;HW -->
<g id="edge1" class="edge">
<title>Start&#45;&gt;HW</title>
<path fill="none" stroke="black" d="M102,-505.83C102,-505.83 102,-480.41 102,-480.41"/>
<polygon fill="black" stroke="black" points="105.5,-480.41 102,-470.41 98.5,-480.41 105.5,-480.41"/>
</g>
<!-- LCD -->
<g id="node3" class="node">
<title>LCD</title>
<path fill="#ffe5ad" stroke="black" d="M168,-398C168,-398 36,-398 36,-398 30,-398 24,-392 24,-386 24,-386 24,-374 24,-374 24,-368 30,-362 36,-362 36,-362 168,-362 168,-362 174,-362 180,-368 180,-374 180,-374 180,-386 180,-386 180,-392 174,-398 168,-398"/>
<text text-anchor="middle" x="102" y="-376.3" font-family="Helvetica,sans-Serif" font-size="14.00">Display Initialization</text>
</g>
<!-- HW&#45;&gt;LCD -->
<g id="edge2" class="edge">
<title>HW&#45;&gt;LCD</title>
<path fill="none" stroke="black" d="M102,-433.83C102,-433.83 102,-408.41 102,-408.41"/>
<polygon fill="black" stroke="black" points="105.5,-408.41 102,-398.41 98.5,-408.41 105.5,-408.41"/>
</g>
<!-- Select -->
<g id="node4" class="node">
<title>Select</title>
<path fill="#b9d4f0" stroke="black" d="M152.5,-326C152.5,-326 51.5,-326 51.5,-326 45.5,-326 39.5,-320 39.5,-314 39.5,-314 39.5,-302 39.5,-302 39.5,-296 45.5,-290 51.5,-290 51.5,-290 152.5,-290 152.5,-290 158.5,-290 164.5,-296 164.5,-302 164.5,-302 164.5,-314 164.5,-314 164.5,-320 158.5,-326 152.5,-326"/>
<text text-anchor="middle" x="102" y="-304.3" font-family="Helvetica,sans-Serif" font-size="14.00">Select Difficulty</text>
</g>
<!-- LCD&#45;&gt;Select -->
<g id="edge3" class="edge">
<title>LCD&#45;&gt;Select</title>
<path fill="none" stroke="black" d="M102,-361.83C102,-361.83 102,-336.41 102,-336.41"/>
<polygon fill="black" stroke="black" points="105.5,-336.41 102,-326.41 98.5,-336.41 105.5,-336.41"/>
</g>
<!-- Input -->
<g id="node5" class="node">
<title>Input</title>
<path fill="#b9d4f0" stroke="black" d="M172,-254C172,-254 32,-254 32,-254 26,-254 20,-248 20,-242 20,-242 20,-230 20,-230 20,-224 26,-218 32,-218 32,-218 172,-218 172,-218 178,-218 184,-224 184,-230 184,-230 184,-242 184,-242 184,-248 178,-254 172,-254"/>
<text text-anchor="middle" x="102" y="-232.3" font-family="Helvetica,sans-Serif" font-size="14.00">Button Input Handler</text>
</g>
<!-- Select&#45;&gt;Input -->
<g id="edge4" class="edge">
<title>Select&#45;&gt;Input</title>
<path fill="none" stroke="black" d="M102,-289.83C102,-289.83 102,-264.41 102,-264.41"/>
<polygon fill="black" stroke="black" points="105.5,-264.41 102,-254.41 98.5,-264.41 105.5,-264.41"/>
</g>
<!-- Logic -->
<g id="node6" class="node">
<title>Logic</title>
<path fill="#c8e6c9" stroke="black" d="M192,-182C192,-182 12,-182 12,-182 6,-182 0,-176 0,-170 0,-170 0,-158 0,-158 0,-152 6,-146 12,-146 12,-146 192,-146 192,-146 198,-146 204,-152 204,-158 204,-158 204,-170 204,-170 204,-176 198,-182 192,-182"/>
<text text-anchor="middle" x="102" y="-160.3" font-family="Helvetica,sans-Serif" font-size="14.00">Game Logic (Minesweeper)</text>
</g>
<!-- Input&#45;&gt;Logic -->
<g id="edge5" class="edge">
<title>Input&#45;&gt;Logic</title>
<path fill="none" stroke="black" d="M102,-217.83C102,-217.83 102,-192.41 102,-192.41"/>
<polygon fill="black" stroke="black" points="105.5,-192.41 102,-182.41 98.5,-192.41 105.5,-192.41"/>
</g>
<!-- Update -->
<g id="node7" class="node">
<title>Update</title>
<path fill="#fff2b0" stroke="black" d="M151,-110C151,-110 53,-110 53,-110 47,-110 41,-104 41,-98 41,-98 41,-86 41,-86 41,-80 47,-74 53,-74 53,-74 151,-74 151,-74 157,-74 163,-80 163,-86 163,-86 163,-98 163,-98 163,-104 157,-110 151,-110"/>
<text text-anchor="middle" x="102" y="-88.3" font-family="Helvetica,sans-Serif" font-size="14.00">Update Display</text>
</g>
<!-- Logic&#45;&gt;Update -->
<g id="edge6" class="edge">
<title>Logic&#45;&gt;Update</title>
<path fill="none" stroke="black" d="M102,-145.83C102,-145.83 102,-120.41 102,-120.41"/>
<polygon fill="black" stroke="black" points="105.5,-120.41 102,-110.41 98.5,-120.41 105.5,-120.41"/>
</g>
<!-- End -->
<g id="node8" class="node">
<title>End</title>
<path fill="#ffbe9d" stroke="black" d="M168.5,-38C168.5,-38 35.5,-38 35.5,-38 29.5,-38 23.5,-32 23.5,-26 23.5,-26 23.5,-12 23.5,-12 23.5,-6 29.5,0 35.5,0 35.5,0 168.5,0 168.5,0 174.5,0 180.5,-6 180.5,-12 180.5,-12 180.5,-26 180.5,-26 180.5,-32 174.5,-38 168.5,-38"/>
<text text-anchor="middle" x="102" y="-22.8" font-family="Helvetica,sans-Serif" font-size="14.00">Game Over / Victory</text>
<text text-anchor="middle" x="102" y="-7.8" font-family="Helvetica,sans-Serif" font-size="14.00">Restart / Exit</text>
</g>
<!-- Update&#45;&gt;End -->
<g id="edge7" class="edge">
<title>Update&#45;&gt;End</title>
<path fill="none" stroke="black" d="M102,-73.96C102,-73.96 102,-48.11 102,-48.11"/>
<polygon fill="black" stroke="black" points="105.5,-48.11 102,-38.11 98.5,-48.11 105.5,-48.11"/>
</g>
</g>
</svg>
