<?xml version="1.0" standalone="no"?>
<!DOCTYPE svg PUBLIC "-//W3C//DTD SVG 20010904//EN"
 "http://www.w3.org/TR/2001/REC-SVG-20010904/DTD/svg10.dtd">
<svg version="1.0" xmlns="http://www.w3.org/2000/svg"
 width="1330.000000pt" height="1472.000000pt" viewBox="0 0 1330.000000 1472.000000"
 preserveAspectRatio="xMidYMid meet">

<g transform="translate(0.000000,1472.000000) scale(0.100000,-0.100000)"
fill="#000000" stroke="none">
<path d="M3801 14593 c-69 -34 -64 168 -65 -2498 -1 -2391 -1 -2410 19 -2449
41 -80 -27 -74 876 -82 l806 -7 6 -276 c4 -152 10 -1125 13 -2164 l7 -1887
-851 2 -852 3 -32 -33 -33 -32 -3 -370 -3 -370 -869 0 -870 0 0 248 c0 279 -5
302 -70 334 -32 16 -77 18 -498 18 -494 0 -503 -1 -547 -50 -19 -21 -20 -39
-23 -459 -2 -299 0 -448 8 -474 7 -25 22 -45 43 -57 31 -19 54 -20 505 -20
504 0 513 1 557 50 18 20 20 39 23 206 l3 184 577 0 c317 0 709 -3 870 -7
l293 -6 -6 -1111 -5 -1111 -273 3 c-149 2 -580 9 -957 17 -377 7 -689 10 -693
5 -15 -14 148 -19 1043 -36 476 -9 871 -17 878 -20 9 -3 12 -89 12 -389 l0
-385 -597 5 c-329 3 -793 8 -1030 11 l-433 6 0 150 c0 167 -8 195 -63 228 -30
19 -52 20 -380 20 -388 0 -396 -1 -423 -65 -20 -49 -20 -580 0 -629 26 -63 41
-65 421 -64 276 1 347 4 379 16 55 22 66 55 66 202 l0 120 598 -5 c328 -3 792
-8 1030 -11 l432 -6 0 -519 c0 -564 0 -564 55 -607 l28 -22 1786 0 c1751 0
1787 0 1818 20 58 35 58 32 63 445 l5 380 1413 3 1412 2 0 -242 c0 -226 1
-245 20 -276 39 -64 7 -62 895 -62 884 0 858 -2 890 59 14 27 15 85 13 480 -3
433 -4 450 -23 471 -45 51 -27 50 -895 50 -899 0 -857 3 -886 -65 -10 -25 -14
-81 -14 -215 l0 -180 -1412 0 -1413 0 3 707 c2 390 4 709 5 709 1 1 613 4
1360 8 l1357 6 0 -175 c0 -129 4 -185 14 -210 29 -68 -14 -65 893 -65 629 0
824 3 842 13 13 6 34 25 45 40 21 28 21 37 21 476 0 488 0 488 -57 517 -37 19
-1649 21 -1687 1 -13 -6 -34 -25 -45 -40 -20 -27 -21 -43 -24 -281 l-3 -253
-826 -6 c-455 -4 -1066 -7 -1358 -7 l-532 0 -7 1307 c-6 946 -11 1317 -19
1342 -7 19 -25 44 -40 55 -28 21 -30 21 -961 21 l-933 0 -7 550 c-3 302 -8
1140 -11 1860 -3 721 -8 1445 -11 1611 l-6 301 970 6 c1060 6 1012 3 1042 64
12 23 16 162 22 748 11 991 -1 4109 -16 4155 -6 20 -25 44 -45 57 l-34 23
-1781 0 c-1641 0 -1784 -2 -1815 -17z m3604 -13 c13 -5 32 -21 41 -35 16 -25
17 -178 18 -2453 0 -1335 -4 -2437 -8 -2450 -18 -54 13 -52 -1028 -55 l-963
-2 -3 38 c-4 50 -22 47 -22 -4 l0 -41 -797 7 c-502 4 -808 10 -825 17 -62 23
-58 -162 -58 2495 1 2583 -2 2450 48 2477 26 14 3561 20 3597 6z m-18 -9393
l28 -27 8 -873 c10 -1111 1 -3938 -13 -3988 -6 -20 -20 -45 -31 -55 -21 -18
-68 -19 -1803 -22 -1283 -2 -1788 1 -1808 9 -62 26 -58 -161 -58 2496 1 2584
-2 2450 48 2477 15 8 507 11 1811 11 l1791 0 27 -28z m-5523 -187 c14 -5 35
-24 46 -42 19 -32 20 -51 20 -465 l0 -433 -29 -32 -29 -33 -469 -3 c-257 -2
-483 0 -501 3 -23 4 -39 16 -52 38 -19 30 -20 53 -20 462 0 324 3 436 13 455
7 14 28 33 47 42 32 16 77 18 492 18 272 0 467 -4 482 -10z m10058 -1921 c45
-24 48 -51 48 -500 0 -458 -2 -473 -56 -498 -32 -14 -1630 -16 -1668 -1 -56
21 -57 30 -54 511 l3 441 33 29 32 29 821 0 c568 0 827 -3 841 -11z m-10345
-1342 l28 -27 3 -287 c3 -303 0 -333 -42 -355 -29 -16 -700 -22 -739 -6 -54
21 -57 40 -57 350 0 207 4 290 13 308 25 49 36 50 414 48 l353 -3 27 -28z
m10460 -260 l28 -27 3 -428 c2 -235 0 -442 -3 -460 -4 -23 -16 -39 -38 -52
-31 -19 -57 -20 -842 -20 -792 0 -811 1 -843 20 -18 11 -37 32 -42 46 -6 15
-10 198 -10 450 0 458 2 473 53 494 12 5 379 8 844 7 l823 -2 27 -28z"/>
<path d="M4384 13075 c-4 -8 -12 -15 -19 -15 -31 0 -35 -63 -35 -554 0 -475 1
-492 20 -524 40 -65 -28 -61 1246 -57 1160 3 1227 6 1208 36 -3 5 -14 5 -24
-1 -12 -6 -440 -11 -1194 -12 l-1176 -3 -27 28 -28 27 -3 500 c-3 547 -3 545
55 569 35 14 2347 11 2377 -3 14 -7 18 -6 14 5 -4 12 -183 14 -1207 17 -1062
2 -1202 0 -1207 -13z"/>
<path d="M6810 13048 c0 -7 5 -20 10 -28 8 -12 10 -11 10 7 0 12 -4 25 -10 28
-5 3 -10 0 -10 -7z"/>
<path d="M6845 12510 c0 -272 1 -384 2 -247 2 136 2 358 0 495 -1 136 -2 24
-2 -248z"/>
<path d="M5097 12643 c-3 -5 -8 -34 -11 -65 -6 -44 -11 -56 -22 -51 -44 16
-94 -38 -79 -86 9 -28 61 -28 91 0 l22 21 7 -21 c3 -12 13 -21 21 -21 17 0 17
0 -1 43 -12 28 -12 46 -3 95 6 33 8 67 5 76 -7 17 -23 21 -30 9z m-27 -149 c0
-18 -24 -44 -40 -44 -22 0 -26 20 -8 38 12 12 48 17 48 6z"/>
<path d="M5327 12617 c-4 -12 -7 -55 -8 -96 -2 -62 1 -76 16 -88 27 -19 79
-16 98 5 35 38 10 76 -49 76 l-34 0 0 63 c0 62 -13 84 -23 40z m89 -139 c10
-15 -23 -37 -46 -31 -20 5 -26 23 -13 36 11 11 51 8 59 -5z"/>
<path d="M6117 12543 c-3 -5 -2 -34 0 -65 4 -40 10 -58 19 -58 9 0 14 11 14
30 0 32 30 70 55 70 8 0 15 5 15 10 0 14 -54 12 -68 -2 -9 -9 -12 -8 -12 5 0
17 -15 23 -23 10z"/>
<path d="M5188 12523 c-34 -40 -40 -63 -24 -89 20 -29 57 -40 97 -28 42 12 32
30 -14 26 -36 -4 -67 10 -67 29 0 5 11 7 24 3 37 -9 68 12 64 44 -2 22 -9 28
-34 30 -19 2 -36 -3 -46 -15z m52 -24 c0 -5 -10 -9 -21 -9 -18 0 -19 2 -9 15
12 15 30 12 30 -6z"/>
<path d="M5555 12497 c-26 -54 -51 -57 -48 -4 2 26 -2 37 -12 37 -22 0 -29
-57 -11 -85 20 -30 37 -32 62 -4 l18 20 8 -20 c4 -12 14 -21 22 -21 11 0 14 9
10 38 -13 97 -19 102 -49 39z"/>
<path d="M5988 12523 c-34 -40 -40 -63 -24 -89 20 -29 57 -40 97 -28 42 12 32
30 -14 26 -36 -4 -67 10 -67 29 0 5 11 7 24 3 37 -9 68 12 64 44 -2 22 -9 28
-34 30 -19 2 -36 -3 -46 -15z m52 -24 c0 -5 -10 -9 -21 -9 -18 0 -19 2 -9 15
12 15 30 12 30 -6z"/>
<path d="M5651 12504 c-11 -15 -21 -32 -21 -39 0 -20 29 -38 61 -38 25 0 29
-4 29 -27 0 -38 -19 -54 -41 -34 -17 15 -39 12 -39 -6 0 -5 14 -19 31 -31 27
-19 32 -20 46 -7 22 22 58 177 44 191 -8 8 -14 2 -22 -21 -11 -33 -44 -51 -62
-33 -14 14 9 41 35 41 29 0 16 24 -14 28 -18 2 -32 -5 -47 -24z"/>
<path d="M5811 12504 c-11 -15 -21 -32 -21 -39 0 -20 29 -38 61 -38 25 0 29
-4 29 -27 0 -38 -19 -54 -41 -34 -17 15 -39 12 -39 -6 0 -5 14 -19 31 -31 27
-19 32 -20 46 -7 22 22 58 177 44 191 -8 8 -14 2 -22 -21 -11 -33 -44 -51 -62
-33 -14 14 9 41 35 41 29 0 16 24 -14 28 -18 2 -32 -5 -47 -24z"/>
<path d="M6816 12002 c-4 -13 -5 -26 -2 -29 10 -11 18 4 14 29 l-4 23 -8 -23z"/>
<path d="M4956 11282 c-3 -5 -8 -45 -12 -88 -6 -68 -4 -83 10 -97 34 -34 106
-15 106 28 0 27 -25 45 -65 45 -26 0 -26 2 -24 55 3 53 -3 76 -15 57z m73
-146 c10 -12 8 -17 -9 -26 -25 -14 -50 -7 -50 14 0 26 41 34 59 12z"/>
<path d="M4308 11251 c-17 -34 -12 -174 5 -168 8 2 12 30 13 78 1 67 3 74 22
77 25 4 82 -24 82 -40 0 -7 -16 -9 -45 -6 -63 8 -60 -16 9 -70 58 -45 88 -41
36 4 l-30 27 30 15 c57 28 31 68 -63 96 -46 14 -47 14 -59 -13z"/>
<path d="M5723 11175 c-2 -78 0 -95 12 -95 10 0 15 11 15 34 0 37 -6 33 89 52
45 8 55 27 28 51 -20 19 -106 53 -131 53 -7 0 -12 -36 -13 -95z m105 40 c24
-7 30 -25 8 -25 -7 0 -28 -3 -45 -6 -26 -6 -31 -4 -31 13 0 25 9 34 29 29 9
-2 26 -7 39 -11z"/>
<path d="M6093 11233 c1 -21 -2 -64 -7 -95 -7 -50 -6 -58 8 -58 12 0 16 9 16
34 0 35 15 46 67 46 31 0 73 21 73 36 0 18 -37 41 -96 59 -65 20 -62 20 -61
-22z m86 -14 c42 -15 39 -26 -10 -34 -47 -8 -53 -4 -44 24 7 24 11 25 54 10z"/>
<path d="M6783 11258 c-13 -6 -23 -19 -23 -30 0 -22 26 -24 34 -2 10 26 50 13
54 -17 2 -21 -5 -33 -35 -56 -21 -16 -46 -33 -55 -36 -10 -4 -18 -12 -18 -19
0 -10 23 -13 87 -14 75 -1 84 0 68 12 -10 8 -26 14 -35 14 -29 0 -30 12 -5 42
60 71 9 145 -72 106z"/>
<path d="M7186 11189 c-31 -66 -34 -70 -35 -42 -1 47 -18 49 -43 6 l-23 -38
-5 59 c-6 72 -30 91 -30 24 0 -103 22 -146 52 -99 11 18 12 18 28 -2 10 -12
22 -17 30 -12 21 13 82 157 71 168 -7 7 -22 -14 -45 -64z"/>
<path d="M5900 11226 c0 -14 29 -31 38 -22 2 3 2 12 -1 21 -8 19 -37 20 -37 1z"/>
<path d="M6260 11226 c0 -16 27 -29 41 -20 13 8 -9 34 -27 34 -8 0 -14 -6 -14
-14z"/>
<path d="M4680 11197 c-52 -18 -48 -38 12 -72 51 -29 52 -30 24 -33 -16 -2
-33 1 -39 7 -15 15 -27 14 -27 -4 0 -21 48 -38 87 -30 44 8 45 39 2 63 -64 36
-67 40 -31 48 18 4 31 11 29 17 -5 16 -18 17 -57 4z"/>
<path d="M5133 11189 c-12 -4 -29 -22 -38 -39 -15 -29 -15 -34 -1 -56 19 -28
55 -39 91 -27 35 11 27 29 -13 25 -31 -3 -62 11 -62 28 0 4 11 5 25 2 29 -5
55 13 55 39 0 24 -29 39 -57 28z m37 -28 c0 -10 -30 -24 -37 -17 -3 3 -2 9 2
15 8 13 35 15 35 2z"/>
<path d="M5242 11143 c2 -34 8 -58 16 -61 8 -2 12 7 12 26 0 29 26 62 48 62 7
0 12 4 12 9 0 19 -22 22 -45 7 -22 -15 -25 -15 -25 -1 0 8 -5 15 -10 15 -7 0
-10 -22 -8 -57z"/>
<path d="M5352 11143 c2 -34 8 -58 16 -61 8 -2 12 7 12 26 0 29 26 62 48 62 7
0 12 4 12 9 0 19 -22 22 -45 7 -22 -15 -25 -15 -25 -1 0 8 -5 15 -10 15 -7 0
-10 -22 -8 -57z"/>
<path d="M4817 11175 c-19 -19 -31 -85 -22 -127 11 -55 16 -68 26 -68 5 0 6
27 3 63 -6 51 -4 60 7 50 17 -16 51 -17 67 -1 20 20 14 65 -10 82 -28 20 -52
20 -71 1z m61 -27 c30 -30 -1 -57 -36 -32 -12 8 -19 21 -16 29 7 18 35 20 52
3z"/>
<path d="M5460 11146 c0 -47 17 -70 44 -60 20 8 20 5 1 -39 -18 -43 -19 -70
-4 -65 6 2 21 33 34 69 12 36 30 79 39 96 20 41 20 43 -4 43 -11 0 -20 -6 -20
-12 0 -7 -11 -26 -25 -43 -21 -25 -26 -28 -35 -15 -5 8 -7 27 -4 43 4 20 2 27
-10 27 -12 0 -16 -11 -16 -44z"/>
<path d="M6350 11170 c-27 -27 -25 -56 4 -75 28 -18 87 -17 94 3 2 8 -9 12
-37 12 -48 0 -66 24 -37 46 14 10 22 10 37 1 22 -13 32 -6 23 17 -9 23 -60 20
-84 -4z"/>
<path d="M6492 11174 c-26 -18 -29 -56 -5 -79 19 -19 83 -16 108 5 23 19 18
56 -10 74 -31 20 -64 20 -93 0z m87 -28 c10 -12 7 -18 -13 -31 -30 -20 -66
-12 -66 14 0 10 3 21 7 24 12 12 60 7 72 -7z"/>
<path d="M4508 11163 c-50 -57 -2 -111 60 -67 20 14 23 14 28 0 3 -9 12 -16
20 -16 18 0 18 0 -6 54 -17 42 -22 46 -53 46 -20 0 -40 -7 -49 -17z m60 -25
c-14 -22 -58 -38 -58 -22 0 16 34 44 53 44 18 0 18 -2 5 -22z"/>
<path d="M5910 11131 c0 -37 14 -61 27 -48 8 9 -8 87 -18 87 -5 0 -9 -18 -9
-39z"/>
<path d="M6276 11162 c-8 -13 5 -82 15 -82 12 0 11 77 0 85 -5 3 -12 1 -15 -3z"/>
<path d="M4776 2712 c-3 -5 -8 -45 -12 -88 -6 -68 -4 -83 10 -97 34 -34 106
-15 106 28 0 27 -25 45 -65 45 -26 0 -26 2 -24 55 3 53 -3 76 -15 57z m73
-146 c10 -12 8 -17 -9 -26 -25 -14 -50 -7 -50 14 0 26 41 34 59 12z"/>
<path d="M4128 2681 c-17 -34 -12 -174 5 -168 8 2 12 30 13 78 1 67 3 74 22
77 25 4 82 -24 82 -40 0 -7 -16 -9 -45 -6 -63 8 -60 -16 9 -70 58 -45 88 -41
36 4 l-30 27 30 15 c57 28 31 68 -63 96 -46 14 -47 14 -59 -13z"/>
<path d="M5543 2605 c-2 -78 0 -95 12 -95 10 0 15 11 15 34 0 37 -6 33 89 52
45 8 55 27 28 51 -20 19 -106 53 -131 53 -7 0 -12 -36 -13 -95z m105 40 c24
-7 30 -25 8 -25 -7 0 -28 -3 -45 -6 -26 -6 -31 -4 -31 13 0 25 9 34 29 29 9
-2 26 -7 39 -11z"/>
<path d="M5913 2663 c1 -21 -2 -64 -7 -95 -7 -50 -6 -58 8 -58 12 0 16 9 16
34 0 35 15 46 67 46 31 0 73 21 73 36 0 18 -37 41 -96 59 -65 20 -62 20 -61
-22z m86 -14 c42 -15 39 -26 -10 -34 -47 -8 -53 -4 -44 24 7 24 11 25 54 10z"/>
<path d="M6603 2688 c-13 -6 -23 -19 -23 -30 0 -22 26 -24 34 -2 10 26 50 13
54 -17 2 -21 -5 -33 -35 -56 -21 -16 -46 -33 -55 -36 -10 -4 -18 -12 -18 -19
0 -10 23 -13 87 -14 75 -1 84 0 68 12 -10 8 -26 14 -35 14 -29 0 -30 12 -5 42
60 71 9 145 -72 106z"/>
<path d="M7006 2619 c-31 -66 -34 -70 -35 -42 -1 47 -18 49 -43 6 l-23 -38 -5
59 c-6 72 -30 91 -30 24 0 -103 22 -146 52 -99 11 18 12 18 28 -2 10 -12 22
-17 30 -12 21 13 82 157 71 168 -7 7 -22 -14 -45 -64z"/>
<path d="M5720 2656 c0 -14 29 -31 38 -22 2 3 2 12 -1 21 -8 19 -37 20 -37 1z"/>
<path d="M6080 2656 c0 -16 27 -29 41 -20 13 8 -9 34 -27 34 -8 0 -14 -6 -14
-14z"/>
<path d="M4500 2627 c-52 -18 -48 -38 12 -72 51 -29 52 -30 24 -33 -16 -2 -33
1 -39 7 -15 15 -27 14 -27 -4 0 -21 48 -38 87 -30 44 8 45 39 2 63 -64 36 -67
40 -31 48 18 4 31 11 29 17 -5 16 -18 17 -57 4z"/>
<path d="M4953 2619 c-12 -4 -29 -22 -38 -39 -15 -29 -15 -34 -1 -56 19 -28
55 -39 91 -27 35 11 27 29 -13 25 -31 -3 -62 11 -62 28 0 4 11 5 25 2 29 -5
55 13 55 39 0 24 -29 39 -57 28z m37 -28 c0 -10 -30 -24 -37 -17 -3 3 -2 9 2
15 8 13 35 15 35 2z"/>
<path d="M5062 2573 c2 -34 8 -58 16 -61 8 -2 12 7 12 26 0 29 26 62 48 62 7
0 12 4 12 9 0 19 -22 22 -45 7 -22 -15 -25 -15 -25 -1 0 8 -5 15 -10 15 -7 0
-10 -22 -8 -57z"/>
<path d="M5172 2573 c2 -34 8 -58 16 -61 8 -2 12 7 12 26 0 29 26 62 48 62 7
0 12 4 12 9 0 19 -22 22 -45 7 -22 -15 -25 -15 -25 -1 0 8 -5 15 -10 15 -7 0
-10 -22 -8 -57z"/>
<path d="M4637 2605 c-19 -19 -31 -85 -22 -127 11 -55 16 -68 26 -68 5 0 6 27
3 63 -6 51 -4 60 7 50 17 -16 51 -17 67 -1 20 20 14 65 -10 82 -28 20 -52 20
-71 1z m61 -27 c30 -30 -1 -57 -36 -32 -12 8 -19 21 -16 29 7 18 35 20 52 3z"/>
<path d="M5280 2576 c0 -47 17 -70 44 -60 20 8 20 5 1 -39 -18 -43 -19 -70 -4
-65 6 2 21 33 34 69 12 36 30 79 39 96 20 41 20 43 -4 43 -11 0 -20 -6 -20
-12 0 -7 -11 -26 -25 -43 -21 -25 -26 -28 -35 -15 -5 8 -7 27 -4 43 4 20 2 27
-10 27 -12 0 -16 -11 -16 -44z"/>
<path d="M6170 2600 c-27 -27 -25 -56 4 -75 28 -18 87 -17 94 3 2 8 -9 12 -37
12 -48 0 -66 24 -37 46 14 10 22 10 37 1 22 -13 32 -6 23 17 -9 23 -60 20 -84
-4z"/>
<path d="M6312 2604 c-26 -18 -29 -56 -5 -79 19 -19 83 -16 108 5 23 19 18 56
-10 74 -31 20 -64 20 -93 0z m87 -28 c10 -12 7 -18 -13 -31 -30 -20 -66 -12
-66 14 0 10 3 21 7 24 12 12 60 7 72 -7z"/>
<path d="M4328 2593 c-50 -57 -2 -111 60 -67 20 14 23 14 28 0 3 -9 12 -16 20
-16 18 0 18 0 -6 54 -17 42 -22 46 -53 46 -20 0 -40 -7 -49 -17z m60 -25 c-14
-22 -58 -38 -58 -22 0 16 34 44 53 44 18 0 18 -2 5 -22z"/>
<path d="M5730 2561 c0 -37 14 -61 27 -48 8 9 -8 87 -18 87 -5 0 -9 -18 -9
-39z"/>
<path d="M6096 2592 c-8 -13 5 -82 15 -82 12 0 11 77 0 85 -5 3 -12 1 -15 -3z"/>
<path d="M1020 4601 c0 -15 -3 -48 -6 -73 -8 -55 12 -81 59 -76 62 6 61 70 -2
76 -30 3 -31 5 -31 53 0 27 -4 49 -10 49 -5 0 -10 -13 -10 -29z m75 -111 c0
-18 -33 -26 -47 -12 -6 6 -7 15 -3 22 10 16 50 8 50 -10z"/>
<path d="M1210 4517 c-19 -41 -46 -43 -42 -3 2 19 -1 27 -10 24 -19 -7 -22
-62 -4 -78 13 -10 20 -10 39 3 21 14 24 13 34 -1 6 -10 13 -15 16 -12 7 7 -4
100 -12 100 -3 0 -13 -15 -21 -33z"/>
<path d="M1283 4543 c-27 -10 -12 -24 20 -18 l32 7 -34 -36 c-44 -45 -33 -59
31 -42 62 16 74 29 21 24 l-43 -3 30 30 c17 17 30 34 30 38 0 8 -68 8 -87 0z"/>
<path d="M1423 4543 c-27 -10 -12 -24 20 -18 l32 7 -34 -36 c-44 -45 -33 -59
31 -42 62 16 74 29 21 24 l-43 -3 30 30 c17 17 30 34 30 38 0 8 -68 8 -87 0z"/>
<path d="M1568 4533 c-20 -23 -30 -55 -20 -69 11 -17 49 -34 64 -30 51 16 52
20 9 25 -54 7 -66 28 -19 33 28 2 33 7 33 28 0 19 -6 26 -26 28 -15 2 -32 -4
-41 -15z m47 -13 c3 -5 -3 -10 -15 -10 -12 0 -18 5 -15 10 3 6 10 10 15 10 5
0 12 -4 15 -10z"/>
<path d="M1680 4500 c0 -37 4 -50 14 -50 9 0 16 12 18 33 2 22 10 35 26 42 12
5 22 13 22 17 0 12 -35 9 -48 -4 -9 -9 -12 -9 -12 0 0 7 -4 12 -10 12 -5 0
-10 -22 -10 -50z"/>
<path d="M10756 2647 c-9 -36 -7 -117 4 -117 6 0 10 25 10 55 0 57 10 66 54
49 26 -10 18 -24 -14 -24 -40 0 -38 -12 10 -50 41 -32 53 -31 23 2 -16 18 -15
19 5 34 12 8 22 19 22 24 0 11 -44 35 -81 44 -22 5 -28 2 -33 -17z"/>
<path d="M10910 2656 c-15 -19 -23 -71 -16 -101 6 -25 37 -34 62 -17 31 20 45
91 22 109 -22 17 -57 21 -68 9z m58 -46 c4 -33 -20 -65 -42 -57 -19 8 -22 57
-4 75 19 19 43 10 46 -18z"/>
<path d="M11031 2636 c-28 -45 -26 -55 9 -62 24 -5 30 -12 30 -32 0 -39 16
-15 28 41 11 52 -2 75 -18 33 -9 -25 -29 -34 -43 -20 -4 4 2 19 13 34 22 31
25 40 11 40 -5 0 -19 -15 -30 -34z"/>
<path d="M10663 2645 c-43 -18 -42 -37 2 -58 49 -23 46 -41 -5 -33 -44 7 -57
-9 -15 -20 69 -17 102 30 44 65 -30 18 -30 20 -11 30 11 6 28 11 36 11 9 0 16
5 16 10 0 14 -29 12 -67 -5z"/>
<path d="M10329 2645 c-7 -11 -13 -67 -10 -99 1 -19 2 -19 22 2 22 25 39 21
39 -9 0 -41 16 -17 18 28 1 25 4 55 8 65 3 10 1 18 -4 18 -5 0 -12 -13 -15
-30 -9 -44 -45 -42 -49 3 -2 17 -6 28 -9 22z"/>
<path d="M10441 2624 c-12 -15 -21 -33 -21 -40 0 -32 71 -67 93 -45 8 8 3 11
-20 11 -41 0 -60 23 -45 55 14 29 30 32 48 8 16 -22 25 -14 17 15 -8 31 -46
29 -72 -4z"/>
<path d="M11223 2610 c-32 -13 -29 -23 15 -49 l37 -22 -33 4 c-20 2 -31 0 -29
-7 5 -15 65 -20 82 -6 9 8 15 8 20 0 8 -13 75 -13 75 0 0 6 -13 10 -29 10 -39
0 -50 18 -14 22 36 4 40 41 6 46 -16 2 -28 -5 -41 -26 -17 -29 -19 -29 -45
-16 -29 16 -36 34 -12 34 8 0 15 5 15 10 0 12 -17 12 -47 0z m137 -24 c0 -11
-19 -15 -25 -6 -3 5 1 10 9 10 9 0 16 -2 16 -4z"/>
<path d="M11528 2609 c-27 -15 -22 -26 20 -49 l37 -21 -37 5 c-42 5 -52 -10
-14 -20 59 -15 85 16 37 43 -36 21 -40 33 -10 33 11 0 17 5 14 10 -8 13 -25
12 -47 -1z"/>
<path d="M11447 2593 c-11 -11 -17 -13 -17 -5 0 7 -4 12 -10 12 -5 0 -10 -13
-10 -30 0 -35 14 -39 32 -10 16 25 28 26 28 1 0 -11 5 -23 12 -27 8 -5 9 2 4
27 -9 44 -18 52 -39 32z"/>
<path d="M11626 2597 c-40 -29 2 -79 51 -61 38 13 42 47 8 62 -33 15 -37 15
-59 -1z m62 -24 c5 -16 -22 -27 -44 -19 -13 5 -14 9 -4 22 15 17 41 15 48 -3z"/>
<path d="M11730 2568 c0 -45 15 -51 24 -8 3 17 12 30 20 30 8 0 18 4 21 10 3
5 -9 9 -30 8 -34 -1 -35 -3 -35 -40z"/>
<path d="M10540 2580 c0 -5 13 -10 29 -10 17 0 33 5 36 10 4 6 -8 10 -29 10
-20 0 -36 -4 -36 -10z"/>
<path d="M986 1418 c-10 -47 -5 -72 17 -76 27 -5 50 17 36 34 -6 8 -17 14 -25
14 -7 0 -14 14 -16 33 l-4 32 -8 -37z m39 -58 c-3 -5 -10 -10 -16 -10 -5 0 -9
5 -9 10 0 6 7 10 16 10 8 0 12 -4 9 -10z"/>
<path d="M1142 1410 c-10 -17 -10 -20 3 -20 9 0 15 -9 15 -23 0 -13 3 -26 6
-30 8 -8 34 3 34 14 0 4 -7 6 -15 3 -11 -5 -15 1 -15 19 0 16 7 27 18 30 16 4
16 5 0 6 -10 0 -18 6 -18 11 0 17 -14 11 -28 -10z"/>
<path d="M1222 1410 c-10 -17 -10 -20 3 -20 9 0 15 -9 15 -23 0 -13 3 -26 6
-30 8 -8 34 3 34 14 0 4 -7 6 -15 3 -11 -5 -15 1 -15 19 0 16 7 27 18 30 16 4
16 5 0 6 -10 0 -18 6 -18 11 0 17 -14 11 -28 -10z"/>
<path d="M1102 1380 c-14 -23 -37 -27 -28 -5 3 8 1 15 -4 15 -13 0 -13 -37 0
-45 6 -4 17 -2 24 5 11 8 15 8 19 -2 8 -23 14 -4 8 25 -6 27 -6 27 -19 7z"/>
<path d="M1312 1391 c-20 -12 -10 -46 13 -49 32 -4 52 14 39 35 -13 21 -33 27
-52 14z m48 -20 c0 -6 -5 -13 -10 -16 -15 -9 -43 3 -35 15 8 13 45 13 45 1z"/>
<path d="M1415 1391 c-3 -6 -11 -9 -16 -6 -5 4 -9 -6 -9 -22 l0 -28 20 25 c15
20 20 21 20 8 0 -9 5 -20 11 -24 8 -4 9 1 4 17 -10 32 -21 43 -30 30z"/>
<path d="M10430 1091 c0 -6 5 -11 10 -11 6 0 10 -27 10 -60 0 -39 -4 -59 -11
-57 -6 1 -14 -4 -16 -10 -3 -10 10 -13 50 -13 64 0 89 19 69 51 -9 14 -10 25
-2 39 13 25 -18 60 -54 60 -13 0 -31 3 -40 6 -9 3 -16 1 -16 -5z m88 -33 c8
-8 9 -15 1 -25 -19 -22 -46 -15 -51 12 -4 20 -1 25 16 25 12 0 27 -5 34 -12z
m1 -67 c19 -12 4 -31 -25 -31 -17 0 -24 5 -24 20 0 21 24 27 49 11z"/>
<path d="M11125 1056 c-26 -61 -13 -106 30 -106 33 0 68 54 60 90 -8 31 -13
36 -48 44 -25 6 -29 3 -42 -28z m70 -16 c9 -27 -21 -72 -43 -68 -37 7 -20 88
18 88 10 0 22 -9 25 -20z"/>
<path d="M10871 1066 c-7 -9 -8 -16 -2 -20 5 -4 12 -2 16 4 3 5 15 10 26 10
32 0 20 -41 -21 -68 -19 -13 -36 -26 -38 -30 -1 -4 25 -8 58 -9 34 0 58 3 54
8 -3 5 -16 9 -30 9 l-25 0 22 29 c30 40 23 75 -17 79 -18 2 -36 -3 -43 -12z"/>
<path d="M11013 1068 c-27 -13 -29 -30 -8 -48 9 -7 14 -24 13 -39 -3 -22 1
-27 25 -29 32 -4 46 21 29 49 -9 14 -8 20 4 27 9 5 14 18 12 28 -4 22 -42 28
-75 12z m57 -18 c0 -18 -37 -31 -49 -16 -9 11 -9 15 1 19 22 9 48 7 48 -3z
m-10 -70 c0 -5 -7 -10 -16 -10 -8 0 -12 5 -9 10 3 6 10 10 16 10 5 0 9 -4 9
-10z"/>
<path d="M10586 1014 c-20 -65 -15 -83 10 -31 15 32 19 34 29 20 7 -9 17 -13
24 -9 7 5 15 -4 22 -23 6 -17 15 -31 21 -31 5 0 6 9 2 23 -4 12 -10 40 -13 61
-6 41 -31 63 -31 27 0 -28 -18 -36 -22 -9 -6 40 -24 29 -42 -28z"/>
<path d="M10744 1063 c-19 -3 -22 -11 -23 -60 l-1 -56 38 7 c20 3 45 6 55 6 9
0 17 5 17 11 0 8 -14 10 -45 6 -25 -4 -45 -3 -45 2 0 11 54 31 82 31 11 0 16
4 13 10 -3 5 -25 7 -50 3 -28 -3 -45 -2 -45 5 0 12 24 22 56 22 13 0 24 5 24
10 0 10 -35 11 -76 3z"/>
<path d="M11333 1030 c-32 -13 -29 -23 15 -49 l37 -22 -33 4 c-20 2 -31 0 -29
-7 5 -15 79 -14 84 1 2 6 -10 19 -26 28 -33 16 -41 35 -16 35 8 0 15 5 15 10
0 12 -17 12 -47 0z"/>
<path d="M11643 1030 c-32 -13 -29 -23 15 -49 l37 -22 -33 4 c-20 2 -31 0 -29
-7 5 -15 79 -14 84 1 2 6 -10 19 -26 28 -33 16 -41 35 -16 35 8 0 15 5 15 10
0 12 -17 12 -47 0z"/>
<path d="M11436 1015 c-21 -21 -21 -61 0 -69 25 -10 62 -7 70 5 4 7 -3 10 -17
9 -37 -3 -49 -1 -49 9 0 5 10 11 23 13 14 2 22 10 22 23 0 25 -28 31 -49 10z
m44 -9 c0 -2 -7 -6 -15 -10 -8 -3 -15 -1 -15 4 0 6 7 10 15 10 8 0 15 -2 15
-4z"/>
<path d="M11565 1019 c-4 -6 -13 -8 -21 -5 -10 4 -14 -4 -14 -32 l0 -37 24 30
24 30 7 -27 c4 -16 11 -28 17 -28 5 0 7 9 4 20 -3 11 -9 29 -12 40 -6 22 -19
26 -29 9z"/>
<path d="M11746 1017 c-11 -8 -17 -23 -14 -38 4 -33 56 -39 83 -9 20 22 20 22
-4 41 -27 22 -41 24 -65 6z m53 -16 c7 -5 10 -14 7 -20 -10 -16 -56 -14 -56 2
0 26 23 35 49 18z"/>
<path d="M11845 1012 c3 -7 5 -25 5 -38 0 -13 5 -24 10 -24 6 0 10 12 10 26 0
17 6 28 20 31 32 9 23 21 -15 20 -26 -1 -34 -5 -30 -15z"/>
<path d="M10115 4995 c-56 -28 -60 -42 -63 -251 l-4 -192 -151 -6 c-84 -3
-665 -13 -1292 -22 -643 -9 -1144 -20 -1149 -25 -6 -5 35 -9 103 -9 164 0
2038 28 2284 34 l207 5 0 -242 c0 -266 2 -276 59 -314 l34 -23 816 0 c628 0
822 3 840 13 13 6 34 25 45 40 20 28 21 40 24 473 3 488 3 487 -58 519 -43 22
-1649 22 -1695 0z m1692 -25 c22 -13 34 -29 38 -52 3 -18 5 -225 3 -460 l-3
-428 -28 -27 -27 -28 -831 0 -831 0 -29 33 -29 32 0 429 c0 287 4 438 11 460
22 63 -16 60 879 61 791 0 816 -1 847 -20z"/>
<path d="M11667 4563 c-11 -11 -8 -153 3 -153 6 0 10 33 10 80 0 80 -1 86 -13
73z"/>
<path d="M11504 4520 c-6 -34 -10 -40 -30 -40 -30 0 -55 -43 -36 -62 9 -9 20
-9 41 -1 16 6 33 7 38 2 4 -4 9 26 10 67 2 79 -13 101 -23 34z m-14 -70 c0
-12 -28 -25 -36 -17 -9 9 6 27 22 27 8 0 14 -5 14 -10z"/>
<path d="M10279 4547 c0 -1 -3 -32 -5 -69 -3 -42 0 -68 6 -68 5 0 10 11 10 24
0 21 6 26 43 33 60 12 58 39 -5 63 -27 10 -48 17 -49 17z m76 -47 c3 -5 3 -10
-2 -10 -4 0 -18 -3 -30 -6 -17 -5 -23 -2 -23 10 0 18 45 23 55 6z"/>
<path d="M10970 4540 c0 -6 6 -13 13 -15 7 -3 12 -25 13 -55 1 -43 -2 -50 -18
-50 -11 0 -17 -4 -14 -9 8 -12 107 6 125 24 14 14 14 18 1 42 -8 15 -35 37
-60 49 -51 26 -60 28 -60 14z m91 -56 c24 -25 24 -26 5 -40 -28 -20 -43 -17
-50 9 -16 61 4 75 45 31z"/>
<path d="M10183 4525 c-43 -18 -42 -37 2 -58 49 -23 46 -41 -5 -33 -44 7 -57
-9 -15 -20 69 -17 102 30 44 65 -30 18 -30 20 -11 30 11 6 28 11 36 11 9 0 16
5 16 10 0 14 -29 12 -67 -5z"/>
<path d="M10623 4530 c-47 -19 -59 -93 -18 -112 34 -15 80 5 96 44 12 29 11
33 -15 54 -30 26 -31 27 -63 14z m49 -27 c25 -22 23 -39 -7 -59 -52 -34 -94
24 -42 59 28 20 27 20 49 0z"/>
<path d="M10750 4514 c-6 -16 -15 -41 -21 -56 -6 -15 -8 -32 -4 -37 8 -14 95
-14 95 -1 0 6 -15 10 -33 10 -19 0 -36 3 -39 6 -4 3 1 26 9 50 17 49 10 75 -7
28z"/>
<path d="M10400 4520 c0 -5 7 -10 15 -10 10 0 15 -10 15 -29 0 -16 -7 -36 -15
-45 -8 -8 -15 -17 -15 -20 0 -10 69 -6 75 4 3 6 -4 10 -16 10 -19 0 -21 4 -15
31 3 17 6 35 6 40 0 5 6 9 14 9 8 0 18 5 21 10 4 6 -12 10 -39 10 -25 0 -46
-4 -46 -10z"/>
<path d="M10854 4523 c-19 -3 -22 -11 -23 -60 l-1 -56 38 7 c20 3 45 6 55 6 9
0 17 5 17 11 0 8 -14 10 -45 6 -25 -4 -45 -3 -45 2 0 11 54 31 82 31 11 0 16
4 13 10 -3 5 -25 7 -50 3 -28 -3 -45 -2 -45 5 0 12 24 22 56 22 13 0 24 5 24
10 0 10 -35 11 -76 3z"/>
<path d="M11336 4477 c-11 -8 -17 -23 -14 -38 4 -33 56 -39 83 -9 20 22 20 22
-4 41 -27 22 -41 24 -65 6z m53 -16 c7 -5 10 -14 7 -20 -10 -16 -56 -14 -56 2
0 26 23 35 49 18z"/>
<path d="M11608 4459 c-19 -32 -43 -31 -33 2 8 23 -10 26 -19 3 -6 -16 9 -54
22 -54 4 0 14 4 22 10 9 6 17 5 22 -3 13 -21 19 -1 11 36 l-8 37 -17 -31z"/>
<path d="M11716 4475 c-21 -21 -21 -61 0 -69 25 -10 62 -7 70 5 4 7 -3 10 -17
9 -37 -3 -49 -1 -49 9 0 5 10 11 23 13 14 2 22 10 22 23 0 25 -28 31 -49 10z
m44 -9 c0 -2 -7 -6 -15 -10 -8 -3 -15 -1 -15 4 0 6 7 10 15 10 8 0 15 -2 15
-4z"/>
<path d="M11224 4466 c-5 -14 -9 -15 -15 -4 -6 8 -9 1 -9 -21 0 -26 3 -32 11
-24 6 6 17 9 24 7 6 -3 18 2 25 11 12 15 15 14 26 -7 l13 -23 0 25 c1 37 -14
57 -31 42 -11 -9 -17 -9 -26 0 -8 8 -13 7 -18 -6z"/>
<path d="M1064 2611 c-168 -10 -174 -21 -174 -341 0 -254 4 -276 60 -305 44
-23 667 -22 715 1 60 28 65 53 65 319 0 262 -4 280 -62 308 -38 17 -428 29
-604 18z m599 -38 c15 -8 32 -25 37 -39 6 -14 10 -129 10 -255 0 -252 -5 -276
-58 -298 -20 -8 -122 -11 -360 -9 -330 3 -332 3 -354 26 -22 22 -23 29 -26
255 -4 248 3 298 41 319 32 18 199 25 457 20 166 -4 232 -8 253 -19z"/>
<path d="M1086 2308 c-10 -47 -5 -72 17 -76 27 -5 50 17 36 34 -6 8 -17 14
-25 14 -7 0 -14 14 -16 33 l-4 32 -8 -37z m39 -58 c-3 -5 -10 -10 -16 -10 -5
0 -9 5 -9 10 0 6 7 10 16 10 8 0 12 -4 9 -10z"/>
<path d="M1242 2300 c-10 -17 -10 -20 3 -20 9 0 15 -9 15 -23 0 -13 3 -26 6
-30 8 -8 34 3 34 14 0 4 -7 6 -15 3 -11 -5 -15 1 -15 19 0 16 7 27 18 30 16 4
16 5 0 6 -10 0 -18 6 -18 11 0 17 -14 11 -28 -10z"/>
<path d="M1322 2300 c-10 -17 -10 -20 3 -20 9 0 15 -9 15 -23 0 -13 3 -26 6
-30 8 -8 34 3 34 14 0 4 -7 6 -15 3 -11 -5 -15 1 -15 19 0 16 7 27 18 30 16 4
16 5 0 6 -10 0 -18 6 -18 11 0 17 -14 11 -28 -10z"/>
<path d="M1202 2270 c-14 -23 -37 -27 -28 -5 3 8 1 15 -4 15 -13 0 -13 -37 0
-45 6 -4 17 -2 24 5 11 8 15 8 19 -2 8 -23 14 -4 8 25 -6 27 -6 27 -19 7z"/>
<path d="M1412 2281 c-20 -12 -10 -46 13 -49 32 -4 52 14 39 35 -13 21 -33 27
-52 14z m48 -20 c0 -6 -5 -13 -10 -16 -15 -9 -43 3 -35 15 8 13 45 13 45 1z"/>
<path d="M1515 2281 c-3 -6 -11 -9 -16 -6 -5 4 -9 -6 -9 -22 l0 -28 20 25 c15
20 20 21 20 8 0 -9 5 -20 11 -24 8 -4 9 1 4 17 -10 32 -21 43 -30 30z"/>
</g>
</svg>
